<svg xmlns="http://www.w3.org/2000/svg" fill="none" viewBox="-0.5 -0.5 14 14" height="14" width="14"><g id="blank-calendar--blank-calendar-date-day-month-empty"><path id="Vector" stroke="#475569" stroke-linecap="round" stroke-linejoin="round" d="M1.3928571428571428 1.8571428571428572c-0.2462757142857143 0 -0.48245785714285716 0.09783428571428571 -0.6565993571428572 0.2719692857142857C0.5621172142857144 2.3032564285714288 0.4642857142857143 2.5394385714285717 0.4642857142857143 2.7857142857142856v8.821428571428571c0 0.24625714285714287 0.09783150000000002 0.48248571428571424 0.27197207142857144 0.6565928571428571 0.1741415 0.17410714285714285 0.41032364285714285 0.27197857142857146 0.6565993571428572 0.27197857142857146h10.214285714285715c0.24625714285714287 0 0.48248571428571424 -0.09787142857142857 0.6565928571428571 -0.27197857142857146s0.27197857142857146 -0.4103357142857143 0.27197857142857146 -0.6565928571428571V2.7857142857142856c0 -0.2462757142857143 -0.09787142857142857 -0.48245785714285716 -0.27197857142857146 -0.6566021428571429C12.089628571428573 1.954977142857143 11.8534 1.8571428571428572 11.607142857142858 1.8571428571428572h-1.8571428571428572" stroke-width="1"></path><path id="Vector_2" stroke="#475569" stroke-linecap="round" stroke-linejoin="round" d="M0.4642857142857143 5.107142857142858h12.071428571428571" stroke-width="1"></path><path id="Vector_3" stroke="#475569" stroke-linecap="round" stroke-linejoin="round" d="M3.25 0.4642857142857143v2.7857142857142856" stroke-width="1"></path><path id="Vector_4" stroke="#475569" stroke-linecap="round" stroke-linejoin="round" d="M9.75 0.4642857142857143v2.7857142857142856" stroke-width="1"></path><path id="Vector_5" stroke="#475569" stroke-linecap="round" stroke-linejoin="round" d="M3.25 1.8571428571428572h4.642857142857143" stroke-width="1"></path></g></svg>