<?xml version="1.0" encoding="UTF-8" standalone="no"?>
<svg
   class="svg-icon"
   style="overflow:hidden;fill:currentColor"
   viewBox="0 0 563.50702 692.224"
   version="1.1"
   id="svg3"
   width="563.50702"
   height="692.224"
   xmlns="http://www.w3.org/2000/svg"
   xmlns:svg="http://www.w3.org/2000/svg">
  <defs
     id="defs3" />
  <path
     d="m 104.0384,450.4576 c 0,11.5712 9.5232,21.0944 21.0944,21.0944 h 315.4944 c 11.5712,0 21.0944,-9.5232 21.0944,-21.0944 0,-11.5712 -9.5232,-21.0944 -21.0944,-21.0944 H 125.1328 c -11.6736,0 -21.0944,9.5232 -21.0944,21.0944 z m 336.5888,85.7088 H 125.1328 c -11.5712,0 -21.0944,9.5232 -21.0944,21.0944 0,11.5712 9.5232,21.0944 21.0944,21.0944 h 315.4944 c 11.5712,0 21.0944,-9.5232 21.0944,-21.0944 0,-11.5712 -9.5232,-21.0944 -21.0944,-21.0944 z"
     id="path1" />
  <path
     d="M 356.6592,0 H 42.1888 C 18.944,0 0,18.944 0,42.1888 V 650.0352 C 0,673.28 18.944,692.224 42.1888,692.224 h 479.1296 c 23.2448,0 42.1888,-18.944 42.1888,-42.1888 V 206.848 Z M 384.1024,87.1424 481.28,184.32 h -89.9072 c -3.8912,0 -7.2704,-3.3792 -7.2704,-7.2704 z M 521.216,649.9328 c 0,0 0,0.1024 0,0 l -479.0272,0.1024 c 0,0 -0.1024,0 -0.1024,-0.1024 V 42.2912 c 0,0 0,-0.1024 0.1024,-0.1024 h 297.984 l 1.6384,1.6384 v 133.12 c 0,27.2384 22.3232,49.4592 49.4592,49.4592 H 521.216 Z"
     id="path2" />
  <path
     d="m 198.5536,222.8224 c 37.1712,0 67.2768,-30.1056 67.2768,-67.2768 0,-37.1712 -30.1056,-67.2768 -67.2768,-67.2768 -37.1712,0 -67.3792,30.0032 -67.3792,67.2768 0,37.1712 30.1056,67.2768 67.3792,67.2768 z m 0,-97.6896 c 16.7936,0 30.4128,13.6192 30.4128,30.4128 0,16.7936 -13.6192,30.4128 -30.4128,30.4128 -16.7936,0 -30.4128,-13.6192 -30.4128,-30.4128 0,-16.7936 13.6192,-30.4128 30.4128,-30.4128 z m -73.4208,213.7088 c 11.6736,0 21.0944,-9.4208 21.0944,-21.0944 0,-22.8352 23.9616,-42.1888 52.3264,-42.1888 28.3648,0 52.3264,19.2512 52.3264,42.1888 0,11.6736 9.4208,21.0944 21.0944,21.0944 11.6736,0 21.0944,-9.4208 21.0944,-21.0944 0,-46.4896 -42.3936,-84.3776 -94.5152,-84.3776 -52.1216,0 -94.5152,37.888 -94.5152,84.3776 0,11.6736 9.4208,21.0944 21.0944,21.0944 z"
     id="path3" />
</svg>
